<svg xmlns="http://www.w3.org/2000/svg" width="171" height="159" viewBox="0 0 171 159">
    <g fill="none" fill-rule="evenodd">
        <g>
            <g>
                <g>
                    <g fill="#F4F4F4">
                        <path d="M143.736 33.634c.166-.88.218-1.797.141-2.736-.445-5.442-5.287-9.827-11.24-10.185-1.215-.073-2.394.018-3.514.252-3.262.682-6.677.265-9.548-1.307-11.672-6.394-25.357-10.031-39.979-9.924-42.244.308-76.082 31.519-76.082 70.16 0 38.749 34.343 70.161 76.707 70.161 42.068 0 76.124-30.702 76.7-69.177.209-13.835-3.964-26.765-11.327-37.708-1.914-2.844-2.478-6.245-1.858-9.536M121.519 0c3.66 0 6.626 2.733 6.626 6.105 0 3.372-2.967 6.105-6.626 6.105-3.66 0-6.626-2.733-6.626-6.105 0-3.372 2.967-6.105 6.626-6.105M136.219 8.886c2.791-.562 5.223 1.648 4.604 4.184-.312 1.278-1.446 2.309-2.853 2.592-2.792.562-5.224-1.647-4.605-4.183.312-1.278 1.447-2.31 2.854-2.593M6.997 31.943c.835 1.673.02 3.652-1.822 4.422-1.842.769-4.012.037-4.847-1.635-.835-1.672-.02-3.652 1.822-4.421 1.842-.77 4.012-.038 4.847 1.634" transform="translate(-635 -1222) translate(0 1026) translate(635 196) translate(.872 4.186)"/>
                    </g>
                    <g>
                        <g>
                            <path fill="#E5E5E5" d="M28.88 15.172l-14.298.224c-.563.01-1.025-.302-1.033-.694L13.331 3.09l-.037-1.978C13.286.72 13.737.395 14.3.386L28.51.163c.562-.01 1.025.302 1.032.694l.259 13.65c.007.359-.406.657-.921.665" transform="translate(-635 -1222) translate(0 1026) translate(635 196) rotate(30 25.66 100.224) rotate(-13 43.947 3.243)"/>
                            <path fill="#151F33" d="M19.496 5.84l-5.337 9.498c.13.039.272.06.423.058l3.742-.058.407-.118.765-9.38z" transform="translate(-635 -1222) translate(0 1026) translate(635 196) rotate(30 25.66 100.224) rotate(-13 43.947 3.243)"/>
                            <path fill="#FF00A4" d="M32.634 25.157l-12.445-6.441c-.49-.254-.717-.737-.505-1.078L27 5.808c.212-.34.78-.412 1.27-.159l12.369 6.402c.49.253.716.736.505 1.078L33.797 25.01c-.194.313-.714.378-1.163.146" transform="translate(-635 -1222) translate(0 1026) translate(635 196) rotate(30 25.66 100.224) rotate(-13 43.947 3.243)"/>
                            <path fill="#2C45EC" d="M14.106 19.317L.85 15.463c-.522-.152-.843-.57-.717-.934l4.379-12.6c.126-.364.652-.536 1.174-.384l13.175 3.83c.121.035.232.085.329.146.318.198.484.509.387.788l-4.396 12.656c-.115.333-.597.491-1.075.352" transform="translate(-635 -1222) translate(0 1026) translate(635 196) rotate(30 25.66 100.224) rotate(-13 43.947 3.243)"/>
                        </g>
                        <path fill="#00D170" d="M125.793 103.193l-12.445-6.44c-.49-.255-.716-.738-.505-1.08l7.318-11.828c.211-.342.78-.413 1.27-.16l12.368 6.402c.49.253.717.736.505 1.078l-7.348 11.882c-.193.313-.714.378-1.163.146" transform="translate(-635 -1222) translate(0 1026) translate(635 196) rotate(30 25.66 100.224)"/>
                    </g>
                    <g>
                        <path fill="#505BE7" d="M64.006 111.466l-56.98-7.202C2.572 103.7-.539 99.943.077 95.87L13.513 6.945C14.13 2.873 18.237.028 22.69.591L79.67 7.793c4.452.563 7.562 4.32 6.947 8.393l-13.436 88.926c-.615 4.072-4.723 6.917-9.175 6.354" transform="translate(-635 -1222) translate(0 1026) translate(635 196) rotate(-18 171.724 -29.003)"/>
                        <g>
                            <path fill="#252C8D" d="M72.683 5.33L4.913 7.444c-2.668.084-4.759 2.17-4.668 4.66l3.13 86.165c.092 2.49 2.328 4.441 4.998 4.358l67.349-2.1c2.669-.083 4.76-2.169 4.67-4.658L77.255 9.32c-.082-2.28-2.13-4.066-4.573-3.99" transform="translate(-635 -1222) translate(0 1026) translate(635 196) rotate(-18 171.724 -29.003) translate(10.707 2)"/>
                            <path fill="#FFF" d="M74.354 4.998L6.585 7.084c-2.669.082-4.76 2.142-4.669 4.6l3.131 85.083c.09 2.46 2.328 4.386 4.997 4.303l67.35-2.073c2.668-.082 4.758-2.141 4.669-4.6l-3.135-85.46c-.083-2.25-2.13-4.015-4.574-3.94" transform="translate(-635 -1222) translate(0 1026) translate(635 196) rotate(-18 171.724 -29.003) translate(10.707 2)"/>
                            <g fill="#FF4232">
                                <path d="M4.313.96C2.451 1.017.986 2.45 1.05 4.154l.403 10.949c.063 1.704 1.63 3.043 3.492 2.986 1.863-.058 3.327-1.49 3.265-3.194l-.404-10.95C7.743 2.243 6.177.904 4.313.96m.666 18.086c-2.44.075-4.491-1.679-4.573-3.91L.003 4.186C-.08 1.954 1.839.078 4.278.002c2.44-.075 4.492 1.68 4.574 3.911l.403 10.95c.082 2.232-1.836 4.108-4.276 4.183" transform="translate(-635 -1222) translate(0 1026) translate(635 196) rotate(-18 171.724 -29.003) translate(10.707 2) translate(8.296 .373)"/>
                                <path d="M4.709 15.003c-.008-.206.145-.376.357-.446.476-.16.81-.585.792-1.073l-.249-6.75c-.021-.577-.492-1.088-1.12-1.128-.68-.042-1.247.415-1.29 1.01l-1.04-.127c.115-1.078 1.15-1.912 2.394-1.839 1.173.069 2.065 1.003 2.104 2.078l.247 6.724c.035.932-.616 1.74-1.536 2.023-.316.097-.646-.116-.658-.42l-.001-.052z" transform="translate(-635 -1222) translate(0 1026) translate(635 196) rotate(-18 171.724 -29.003) translate(10.707 2) translate(8.296 .373)"/>
                            </g>
                            <g>
                                <path fill="#151F33" d="M4.011 44.154L1.477 44.244 1.449 43.577 3.983 43.486zM10.603 47.497L7.362 47.612 7.334 46.944 10.575 46.829zM21.885 47.097L18.644 47.212 18.616 46.544 21.857 46.428zM33.167 46.696L29.926 46.811 29.898 46.143 33.139 46.028zM44.449 46.296L41.208 46.411 41.18 45.743 44.421 45.628zM55.732 45.895L52.491 46.011 52.463 45.342 55.704 45.227zM67.014 45.495L63.773 45.61 63.745 44.942 66.986 44.827zM3.633 35.233L1.099 35.323 1.07 34.655 3.605 34.565zM2.92 18.442L.386 18.532.358 17.864 2.892 17.774zM2.562 10.004L.028 10.094 0 9.426 2.534 9.336zM3.405 26.833L.871 26.923.842 26.255 3.377 26.165zM66.772 41.927s-.092.01-.272.02l-.797.04-3.066.13-11.276.435-37.206 1.353-8.817.31-.12.005-.003-.108-1.172-28.575-.322-8.439-.076-2.272-.015-.589c-.001-.132.003-.2.003-.2s.01.068.02.2l.035.588.117 2.27.394 8.436L5.45 44.104l-.123-.105 8.818-.314 37.209-1.289 11.28-.365 3.066-.088.798-.018c.18-.002.273.002.273.002" transform="translate(-635 -1222) translate(0 1026) translate(635 196) rotate(-18 171.724 -29.003) translate(10.707 2) translate(9.686 24.795)"/>
                                <path fill="#E5E5E5" d="M66.737 24.25c.002.062-13.361.585-29.845 1.17-16.489.585-29.854 1.01-29.856.95-.003-.06 13.358-.585 29.847-1.17 16.484-.585 29.851-1.01 29.854-.95M66.38 15.855c.003.06-13.36.585-29.844 1.17-16.49.585-29.854 1.01-29.856.95-.003-.062 13.358-.585 29.847-1.17 16.483-.585 29.851-1.01 29.854-.95M66.022 7.417c.003.06-13.36.584-29.844 1.17-16.49.585-29.854 1.01-29.856.95-.003-.062 13.358-.585 29.847-1.17 16.483-.585 29.85-1.01 29.853-.95M67.093 32.646c.003.061-13.361.585-29.845 1.17-16.489.585-29.854 1.01-29.856.95-.003-.061 13.358-.585 29.847-1.17 16.484-.585 29.851-1.01 29.854-.95" transform="translate(-635 -1222) translate(0 1026) translate(635 196) rotate(-18 171.724 -29.003) translate(10.707 2) translate(9.686 24.795)"/>
                                <path fill="#FF4343" d="M67.882 39.162l-.352-7.448-5.415-7.005-3.33 2.553-7.543-9.764-4.042 2.85-6.238-9.035-4.546 3.698L28.766 3l-6.963 14.037-6.487-6.63-7.34-1.61 1.545 32.672 58.361-2.307z" transform="translate(-635 -1222) translate(0 1026) translate(635 196) rotate(-18 171.724 -29.003) translate(10.707 2) translate(9.686 24.795) scale(-1 1) rotate(4 0 -1063.918)"/>
                                <path fill="#151F33" d="M7.266 6.168l.377-.024c.343-.017.835-.041 1.47-.074l5.562-.248.033-.002.021.023 6.31 6.826 2.38-.097c.037-.237.26-.425.542-.437.28-.01.522.158.582.391l11.375-.464.065-.003.037.05 1.252 1.73c.055-.018.114-.031.176-.034.316-.012.584.204.597.482.007.149-.061.284-.174.381l4.883 6.744 6.5 8.994 5.449-7.474c-.096-.085-.158-.2-.165-.33-.013-.279.233-.515.55-.527.076-.003.15.008.218.03l1.485-2.036.08-.11.082.108 7.803 10.262 2.15 2.852.558.753c.125.17.183.262.183.262s-.074-.081-.207-.247l-.581-.737-2.194-2.824-7.79-10.111-1.392 1.92c.117.086.194.214.2.36.014.278-.232.514-.548.526-.094.004-.182-.014-.261-.046-1.718 2.369-3.568 4.92-5.524 7.62l-.097.132-.096-.133-6.604-9.122-4.881-6.754c-.055.018-.114.032-.176.034-.316.012-.583-.203-.596-.482-.007-.149.06-.284.173-.381l-1.21-1.675-11.312.433c-.038.237-.261.424-.543.435-.28.011-.522-.158-.581-.392L21 12.845l-.047.002-.03-.033-6.276-6.869-5.532.19-1.472.043-.378.006c-.085 0-.128 0-.128-.003s.043-.007.128-.013M15.12 55.607c.076 1.801-1.52 3.32-3.566 3.393-2.045.073-3.765-1.328-3.842-3.13-.076-1.801 1.52-3.32 3.565-3.393 2.046-.073 3.766 1.329 3.842 3.13" transform="translate(-635 -1222) translate(0 1026) translate(635 196) rotate(-18 171.724 -29.003) translate(10.707 2) translate(9.686 24.795)"/>
                                <path fill="#E5E5E5" d="M64.082 52.904L20.574 54.448 20.522 53.228 64.031 51.683zM38.769 56.856L20.703 57.497 20.652 56.276 38.717 55.635z" transform="translate(-635 -1222) translate(0 1026) translate(635 196) rotate(-18 171.724 -29.003) translate(10.707 2) translate(9.686 24.795)"/>
                            </g>
                        </g>
                    </g>
                </g>
            </g>
        </g>
    </g>
</svg>
