<svg width="24" height="24" viewBox="0 0 24 24" fill="none" xmlns="http://www.w3.org/2000/svg">
<path fill-rule="evenodd" clip-rule="evenodd" d="M12.3044 14.7074C12.3044 13.1671 11.5717 12.0286 10.0581 11.6019C11.1625 11.0759 11.7384 10.2791 11.7384 9.03972C11.7384 6.59594 9.91144 6 7.80356 6H2V18.2697H7.96609C10.2032 18.2697 12.3044 17.2004 12.3044 14.7074ZM4.70549 8.09455H7.24429C8.2203 8.09455 9.09879 8.36793 9.09879 9.49647C9.09879 10.5383 8.41534 10.9576 7.44849 10.9576H4.70549V8.09455ZM4.70466 16.186V12.8071H7.65353C8.84458 12.8071 9.59805 13.3022 9.59805 14.5591C9.59805 15.7985 8.69872 16.186 7.59769 16.186H4.70466ZM17.6653 18.502C19.794 18.502 21.1726 17.546 21.836 15.514H19.6756C19.4431 16.2725 18.4846 16.6734 17.7411 16.6734C16.3067 16.6734 15.5532 15.8357 15.5532 14.4121H21.9819C22.1853 11.5633 20.5983 9.13534 17.6644 9.13534C14.9481 9.13534 13.1045 11.1707 13.1045 13.837C13.1045 16.6042 14.8514 18.502 17.6653 18.502ZM17.5886 10.979C18.818 10.979 19.4364 11.6991 19.5398 12.8768H15.5566C15.6374 11.7091 16.4151 10.979 17.5886 10.979ZM20.0488 6.64411H15.0579V7.85266H20.0488V6.64411Z" fill="white"/>
</svg>
